HIERARCHY
ROOT Hips
{
	OFFSET 0.00000 0.00000 0.00000
	CHANNELS 6 Xposition Yposition Zposition Zrotation Yrotation Xrotation 
	JOINT LHipJoint
	{
		OFFSET 0 0 0
		CHANNELS 3 Zrotation Yrotation Xrotation
		JOINT LeftHip
		{
			OFFSET 1.62964 -1.40469 0.78906
			CHANNELS 3 Zrotation Yrotation Xrotation
			JOINT LeftKnee
			{
				OFFSET 2.29640 -6.30932 0.00000
				CHANNELS 3 Zrotation Yrotation Xrotation
				JOINT LeftAnkle
				{
					OFFSET 2.29451 -6.30412 0.00000
					CHANNELS 3 Zrotation Yrotation Xrotation
					JOINT LeftToe
					{
						OFFSET 0.03611 -0.09921 1.56387
						CHANNELS 3 Zrotation Yrotation Xrotation
						End Site
						{
							OFFSET 0.00000 -0.00000 0.80291
						}
					}
				}
			}
		}
	}
	JOINT RHipJoint
	{
		OFFSET 0 0 0
		CHANNELS 3 Zrotation Yrotation Xrotation
		JOINT RightHip
		{
			OFFSET -1.73712 -1.40469 0.78906
			CHANNELS 3 Zrotation Yrotation Xrotation
			JOINT RightKnee
			{
				OFFSET -2.28137 -6.26801 0.00000
				CHANNELS 3 Zrotation Yrotation Xrotation
				JOINT RightAnkle
				{
					OFFSET -2.28681 -6.28298 0.00000
					CHANNELS 3 Zrotation Yrotation Xrotation
					JOINT RightToe
					{
						OFFSET -0.15927 -0.43759 1.61103
						CHANNELS 3 Zrotation Yrotation Xrotation
						End Site
						{
							OFFSET -0.00000 -0.00000 0.84630
						}
					}
				}
			}
		}
	}
	JOINT lowerback
	{
		OFFSET 0 0 0
		CHANNELS 3 Zrotation Yrotation Xrotation
		JOINT Chest
		{
			OFFSET -0.04227 2.04338 -0.00225
			CHANNELS 3 Zrotation Yrotation Xrotation
			JOINT Chest2
			{
				OFFSET -0.02148 2.04482 -0.04273
				CHANNELS 3 Zrotation Yrotation Xrotation
				JOINT lowerneck
				{
					OFFSET 0 0 0
					CHANNELS 3 Zrotation Yrotation Xrotation
					JOINT Neck
					{
						OFFSET 0.09180 1.44629 0.19359
						CHANNELS 3 Zrotation Yrotation Xrotation
						JOINT Head
						{
							OFFSET 0.00887 1.40645 0.14750
							CHANNELS 3 Zrotation Yrotation Xrotation
							End Site
							{
								OFFSET -0.00669 1.50671 0.03707
							}
						}
					}
				}
				JOINT LeftCollar
				{
					OFFSET 0 0 0
					CHANNELS 3 Zrotation Yrotation Xrotation
					JOINT LeftShoulder
					{
						OFFSET 2.17674 1.86763 -0.06520
CHANNELS 3 Zrotation Xrotation Yrotation
						JOINT LeftElbow
						{
OFFSET 0 -4.657760 0.000000
CHANNELS 3 Zrotation Xrotation Yrotation
							JOINT LeftWrist
							{
OFFSET 0 -3.555390 0.000000
CHANNELS 3 Zrotation Xrotation Yrotation
								JOINT lhand
								{
									OFFSET 0 0 0
CHANNELS 3 Zrotation Xrotation Yrotation
									JOINT LFingers
									{
OFFSET 0 -0.707260 0.000000
CHANNELS 3 Zrotation Xrotation Yrotation
										End Site
										{
OFFSET 0 -0.570220 0.000000
										}
									}
								}
								JOINT LThumb
								{
OFFSET 0 0.000000 0.000000
CHANNELS 3 Zrotation Xrotation Yrotation
									End Site
									{
OFFSET 0 -0.578920 0.578920
									}
								}
							}
						}
					}
				}
				JOINT RightCollar
				{
					OFFSET 0 0 0
					CHANNELS 3 Zrotation Yrotation Xrotation
					JOINT RightShoulder
					{
						OFFSET -2.80694 1.55459 -0.32496
CHANNELS 3 Zrotation Xrotation Yrotation
						JOINT RightElbow
						{
OFFSET 0 -4.719250 -0.000000
CHANNELS 3 Zrotation Xrotation Yrotation
							JOINT RightWrist
							{
OFFSET 0 -3.569900 0.000000
CHANNELS 3 Zrotation Xrotation Yrotation
								JOINT rhand
								{
									OFFSET 0 0 0
CHANNELS 3 Zrotation Xrotation Yrotation
									JOINT RFingers
									{
OFFSET 0 -0.507760 0.000000
CHANNELS 3 Zrotation Xrotation Yrotation
										End Site
										{
OFFSET 0 -0.409370 0.000000
										}
									}
								}
								JOINT RThumb
								{
OFFSET 0 0.000000 0.000000
CHANNELS 3 Zrotation Xrotation Yrotation
									End Site
									{
OFFSET 0 -0.415620 0.415620
									}
								}
							}
						}
					}
				}
			}
		}
	}
}
MOTION
Frames: 8
Frame Time: 0.008333333333333333
24.747134 16.157308 -8.751840 179.446439 -19.326056 -155.820539 0.000000 0.000000 0.000000 -17.748600 -16.092994 -37.266636 8.798938 16.675355 55.390384 0.504639 -1.010481 -13.107017 1.639755 -8.061949 -22.907624 0.000000 0.000000 0.000000 16.875911 13.754248 -30.257821 -0.273756 -3.364209 9.294562 -0.344474 -1.691341 -11.834127 -0.178682 2.714874 -7.486328 -5.370369 -0.771845 -25.693514 -1.033554 0.657590 1.486095 2.115132 -0.182557 16.235648 -3.625044 0.617740 -0.265963 7.205175 -1.351188 18.584722 2.772154 -0.903885 5.679702 0.000000 0.000000 0.000000 6.657444 4.644455 -8.107752 10.387857 -17.343778 1.588785 21.486752 1.758750 13.094356 0.000000 0.000000 0.000000 -7.125000 0.000000 0.000000 -4.021733 15.967788 -2.766631 0.000000 0.000000 0.000000 -2.683823 -1.609118 12.980532 -21.890654 -32.853192 -6.526476 -12.994790 5.138778 55.487415 0.000000 0.000000 0.000000 7.125000 0.000000 0.000000 76.591936 76.619533 -62.873581
24.768540 16.168089 -8.821742 179.272392 -20.005200 -155.389229 0.000000 0.000000 0.000000 -18.022422 -16.371853 -37.934544 8.184778 16.252624 53.224029 0.576212 -0.127613 -14.297986 2.102501 -9.076307 -26.034295 0.000000 0.000000 0.000000 17.200924 12.708036 -30.509245 -0.263271 -3.299027 9.112447 -0.357058 -1.419285 -11.894013 -0.253682 3.217948 -8.888267 -5.395934 -0.497078 -25.710848 -1.231201 1.054714 1.444659 2.051201 0.001735 16.167141 -3.610451 0.604625 -0.139223 7.298459 -1.394490 18.653996 2.798433 -0.919665 5.682252 0.000000 0.000000 0.000000 6.772135 4.381362 -9.186508 10.687403 -17.807595 1.679100 21.589249 -0.190751 14.649755 0.000000 0.000000 0.000000 -7.125000 0.000000 0.000000 -4.021895 14.304955 -2.910771 0.000000 0.000000 0.000000 -2.849658 -2.258621 12.860590 -21.745939 -32.688674 -6.448127 -13.798409 6.143629 55.782900 0.000000 0.000000 0.000000 7.125000 0.000000 0.000000 77.804407 76.947246 -64.410485
24.787947 16.182868 -8.886223 178.984871 -20.756515 -154.865429 0.000000 0.000000 0.000000 -18.352902 -16.782112 -38.435491 7.519301 15.753533 50.811249 0.719821 -0.090841 -16.002103 1.694778 -8.194918 -23.310061 0.000000 0.000000 0.000000 17.157509 12.319289 -30.219113 -0.209977 -2.949808 8.139210 -0.319866 -2.147543 -11.689929 -0.378575 3.951326 -10.939926 -5.537955 -0.304255 -25.767310 -1.434492 1.389599 1.475534 2.023098 0.145659 16.215610 -3.424106 0.496952 0.201860 7.272032 -1.479995 18.175930 2.751638 -0.944576 5.479615 0.000000 0.000000 0.000000 6.981305 3.858367 -10.421520 10.958437 -18.224492 1.762935 21.616303 -0.916047 13.732720 0.000000 0.000000 0.000000 -7.125000 0.000000 0.000000 -3.958860 15.275940 -2.782788 0.000000 0.000000 0.000000 -3.216282 -3.138419 13.331277 -21.634187 -32.561140 -6.387869 -13.390593 5.348254 56.312186 0.000000 0.000000 0.000000 7.125000 0.000000 0.000000 80.103291 76.831388 -66.526777
24.803186 16.198527 -8.946092 179.083497 -21.439653 -154.812242 0.000000 0.000000 0.000000 -18.424755 -16.641668 -38.393652 6.747861 15.113371 47.909705 0.890357 0.000215 -17.838961 0.819894 -5.774853 -16.133410 0.000000 0.000000 0.000000 17.471995 12.188798 -30.033533 -0.219009 -3.012882 8.314698 -0.353322 -2.396270 -12.364712 -0.292789 3.477506 -9.611324 -5.367359 -0.007969 -25.480844 -1.466924 1.729879 1.546677 2.015821 0.319282 16.116640 -3.513679 0.436628 -0.566037 6.862773 -1.511556 18.894361 2.641016 -0.966050 5.837796 0.000000 0.000000 0.000000 6.900213 3.354537 -10.833828 11.118259 -18.469313 1.813196 21.671544 -1.226183 13.973756 0.000000 0.000000 0.000000 -7.125000 0.000000 0.000000 -3.932455 15.013798 -2.786094 0.000000 0.000000 0.000000 -3.574886 -3.509826 13.792344 -21.988008 -32.962964 -6.579531 -13.516723 5.375249 55.842189 0.000000 0.000000 0.000000 7.125000 0.000000 0.000000 78.066401 76.843947 -64.555651
24.814271 16.204059 -9.019202 179.150536 -22.234710 -154.415833 0.000000 0.000000 0.000000 -18.427329 -16.675361 -38.649624 6.020898 14.445824 45.060321 0.991418 1.074283 -19.229089 0.684840 -5.255611 -14.646969 0.000000 0.000000 0.000000 17.852803 12.037091 -29.823204 -0.202983 -2.899231 7.998495 -0.387681 -2.844821 -13.155613 -0.367393 3.890861 -10.770136 -5.201702 0.188425 -25.648786 -1.558949 1.946284 1.389411 1.897798 0.434858 16.013231 -3.311210 0.513728 -0.254623 6.573411 -1.367070 18.843660 2.521757 -0.905304 5.759741 0.000000 0.000000 0.000000 7.017042 3.430367 -11.708797 11.427497 -18.940238 1.912653 21.657438 -1.607845 13.637987 0.000000 0.000000 0.000000 -7.125000 0.000000 0.000000 -3.926549 15.372351 -2.751519 0.000000 0.000000 0.000000 -3.707232 -3.419038 14.526240 -22.406210 -33.432995 -6.808374 -15.271104 6.114844 53.958372 0.000000 0.000000 0.000000 7.125000 0.000000 0.000000 69.614236 77.237988 -56.923345
24.820565 16.212072 -9.088831 179.178743 -23.391975 -154.259950 0.000000 0.000000 0.000000 -18.507906 -16.817114 -38.406793 5.318525 13.731286 42.176364 1.036697 2.376804 -20.233788 0.514693 -4.590790 -12.746266 0.000000 0.000000 0.000000 18.019121 12.044596 -28.804558 -0.133179 -2.342633 6.454073 -0.311829 -4.355642 -13.082626 -0.508253 4.545138 -12.619671 -5.016132 0.279724 -25.568262 -1.519282 2.003285 1.380214 1.859094 0.478008 15.955291 -3.242004 0.622569 -0.009014 6.157978 -1.095488 18.545013 2.390395 -0.785234 5.610100 0.000000 0.000000 0.000000 6.808998 3.353362 -12.312002 11.756029 -19.437730 2.020368 21.529530 -1.602235 13.198057 0.000000 0.000000 0.000000 -7.125000 0.000000 0.000000 -3.994874 15.853274 -2.758379 0.000000 0.000000 0.000000 -4.120307 -3.713227 15.248659 -22.561620 -33.605910 -6.894169 -15.419713 5.756467 54.362405 0.000000 0.000000 0.000000 7.125000 0.000000 0.000000 71.371634 77.375978 -58.722249
24.828781 16.221739 -9.147452 179.384942 -24.474410 -154.271120 0.000000 0.000000 0.000000 -18.470195 -16.540024 -38.070272 4.634362 12.959516 39.217561 1.015384 3.930305 -20.836538 0.626454 -5.064176 -14.091768 0.000000 0.000000 0.000000 18.875104 10.448224 -29.481930 -0.159552 -2.573815 7.094450 -0.372534 -3.452438 -13.321241 -0.555442 4.774040 -13.265337 -4.734890 0.534159 -25.380591 -1.449532 2.250141 1.457112 1.871720 0.613275 15.931060 -3.174139 0.614936 -0.392417 5.816086 -1.016441 18.706334 2.276606 -0.742535 5.722852 0.000000 0.000000 0.000000 6.652424 2.768533 -12.781814 11.809144 -19.517725 2.038088 21.505773 -1.613808 13.485866 0.000000 0.000000 0.000000 -7.125000 0.000000 0.000000 -4.023545 15.549836 -2.804726 0.000000 0.000000 0.000000 -4.364043 -4.113902 15.372875 -22.895638 -33.974422 -7.079886 -13.584223 4.476134 55.333645 0.000000 0.000000 0.000000 7.125000 0.000000 0.000000 75.873560 76.822171 -62.405505
24.826537 16.218401 -9.215976 179.001287 -24.973644 -154.087763 0.000000 0.000000 0.000000 -19.262184 -16.117267 -37.313362 3.946780 12.086507 36.042479 1.116588 4.441825 -22.022439 0.351749 -3.799086 -10.513597 0.000000 0.000000 0.000000 18.811898 9.492784 -29.716659 -0.179877 -2.730749 7.530135 -0.444695 -2.838707 -13.956898 -0.639494 5.114870 -14.236836 -5.072766 0.580167 -25.451938 -1.546292 2.438319 1.522536 2.025031 0.668443 16.032704 -3.217009 0.848842 -0.545567 5.751070 -0.660796 18.770005 2.282206 -0.567027 5.751874 0.000000 0.000000 0.000000 6.396991 2.791401 -12.811685 12.041148 -19.866294 2.116308 21.823731 -1.687071 13.544648 0.000000 0.000000 0.000000 -7.125000 0.000000 0.000000 -3.807895 15.454246 -2.661449 0.000000 0.000000 0.000000 -4.677199 -4.487144 16.125967 -23.279136 -34.392407 -7.295529 -10.137425 2.204466 56.879103 0.000000 0.000000 0.000000 7.125000 0.000000 0.000000 82.453573 75.675100 -67.564232
